<svg xmlns="http://www.w3.org/2000/svg" viewBox="0 0 64 64" width="64" height="64">
  <rect width="64" height="64" rx="14" fill="#fdfbf7"/>
  <g transform="translate(32 32) scale(0.94) translate(-32 -32)">
    <path d="M32 1.6c4.1 0 6.6 2.4 10.4 3.4 3.8 1 7.3-.4 10 2.3 2.7 2.7 1.4 6.3 2.4 10.1 1 3.8 3.5 6.3 3.5 10.4 0 4.1-2.5 6.6-3.5 10.4-1 3.8.3 7.4-2.4 10.1-2.7 2.7-6.2 1.3-10 2.3-3.8 1-6.3 3.4-10.4 3.4-4.1 0-6.6-2.4-10.4-3.4-3.8-1-7.3.4-10-2.3-2.7-2.7-1.4-6.3-2.4-10.1C8.2 34.4 5.7 31.9 5.7 27.8c0-4.1 2.5-6.6 3.5-10.4 1-3.8-.3-7.4 2.4-10.1 2.7-2.7 6.2-1.3 10-2.3C25.4 4 27.9 1.6 32 1.6Z" fill="#453427" transform="translate(0 4.2)"/>
    <circle cx="32" cy="32" r="25.4" fill="#6b5342"/>
    <circle cx="32" cy="32" r="23.6" fill="#f3e4d3"/>
    <g stroke="#c08b55" stroke-width="2.1" fill="none">
      <ellipse cx="32.6" cy="31.4" rx="19.4" ry="19.8"/>
      <ellipse cx="33.2" cy="30.6" rx="13.6" ry="14.4"/>
      <ellipse cx="33.8" cy="29.8" rx="7.8" ry="8.8"/>
    </g>
    <ellipse cx="34.4" cy="29" rx="3" ry="3.5" fill="#8d5a30"/>
  </g>
</svg>
