<svg xmlns="http://www.w3.org/2000/svg" viewBox="0 0 1200 900" width="1200" height="900" role="img" aria-label="Decorative laminate sample swatches in assorted shades">
<title>Decorative laminate sample swatches in assorted shades</title>
<defs>
  <filter id="grainA" x="-15%" y="-15%" width="130%" height="130%">
    <feTurbulence type="fractalNoise" baseFrequency="0.0035 0.075" numOctaves="4" seed="11" result="n"/>
    <feDisplacementMap in="SourceGraphic" in2="n" scale="34" xChannelSelector="R" yChannelSelector="G"/>
  </filter>
  <filter id="grainB" x="-15%" y="-15%" width="130%" height="130%">
    <feTurbulence type="fractalNoise" baseFrequency="0.006 0.05" numOctaves="5" seed="29" result="n"/>
    <feDisplacementMap in="SourceGraphic" in2="n" scale="52" xChannelSelector="R" yChannelSelector="G"/>
  </filter>
  <filter id="grainC" x="-15%" y="-15%" width="130%" height="130%">
    <feTurbulence type="fractalNoise" baseFrequency="0.002 0.11" numOctaves="3" seed="47" result="n"/>
    <feDisplacementMap in="SourceGraphic" in2="n" scale="18" xChannelSelector="R" yChannelSelector="G"/>
  </filter>
  <filter id="fibre" x="0%" y="0%" width="100%" height="100%">
    <feTurbulence type="fractalNoise" baseFrequency="0.9" numOctaves="3" seed="5" result="n"/>
    <feColorMatrix in="n" type="saturate" values="0"/>
    <feComponentTransfer><feFuncA type="linear" slope="0.14"/></feComponentTransfer>
  </filter>
  <filter id="chips" x="0%" y="0%" width="100%" height="100%">
    <feTurbulence type="turbulence" baseFrequency="0.045 0.06" numOctaves="2" seed="17" result="n"/>
    <feColorMatrix in="n" type="saturate" values="0.15"/>
    <feComponentTransfer><feFuncA type="linear" slope="0.5"/></feComponentTransfer>
  </filter>
  <filter id="soften" x="-10%" y="-10%" width="120%" height="120%">
    <feGaussianBlur stdDeviation="9"/>
  </filter>
  <linearGradient id="light" x1="0" y1="0" x2="0.85" y2="1">
    <stop offset="0" stop-color="#ffffff" stop-opacity="0.34"/>
    <stop offset="0.45" stop-color="#ffffff" stop-opacity="0.06"/>
    <stop offset="1" stop-color="#2c2219" stop-opacity="0.2"/>
  </linearGradient>
  <radialGradient id="vignette" cx="0.42" cy="0.32" r="0.95">
    <stop offset="0.45" stop-color="#000000" stop-opacity="0"/>
    <stop offset="1" stop-color="#2c2219" stop-opacity="0.3"/>
  </radialGradient></defs>
<rect width="1200" height="900" fill="#f7f2ea"/><g transform="translate(84 76) rotate(-1)">
      <rect width="230" height="222" rx="12" fill="#e9d9c2"/>
      <g filter="url(#grainC)" opacity="0.4"><rect x="-40" y="0.0" width="310" height="2.3" fill="#897967" opacity="0.71"/><rect x="-40" y="17.0" width="310" height="2.3" fill="#897967" opacity="0.31"/><rect x="-40" y="32.7" width="310" height="1.6" fill="#897967" opacity="0.49"/><rect x="-40" y="50.3" width="310" height="3.0" fill="#897967" opacity="0.61"/><rect x="-40" y="64.0" width="310" height="1.0" fill="#897967" opacity="0.42"/><rect x="-40" y="81.9" width="310" height="1.5" fill="#897967" opacity="0.28"/><rect x="-40" y="98.8" width="310" height="1.5" fill="#897967" opacity="0.31"/><rect x="-40" y="112.7" width="310" height="3.1" fill="#897967" opacity="0.64"/><rect x="-40" y="127.8" width="310" height="2.3" fill="#897967" opacity="0.53"/><rect x="-40" y="143.8" width="310" height="0.8" fill="#897967" opacity="0.55"/><rect x="-40" y="160.8" width="310" height="2.7" fill="#897967" opacity="0.44"/><rect x="-40" y="175.4" width="310" height="2.4" fill="#897967" opacity="0.63"/><rect x="-40" y="190.9" width="310" height="2.6" fill="#897967" opacity="0.81"/><rect x="-40" y="209.4" width="310" height="1.2" fill="#897967" opacity="0.79"/></g>
      <rect width="230" height="222" rx="12" fill="url(#light)" opacity="0.5"/>
      <rect width="230" height="222" rx="12" fill="none" stroke="#6d4b28" stroke-opacity="0.22"/>
    </g><g transform="translate(350 76) rotate(0)">
      <rect width="230" height="222" rx="12" fill="#b8865a"/>
      <g filter="url(#grainC)" opacity="0.14"><rect x="-40" y="0.0" width="310" height="2.1" fill="#735338" opacity="0.30"/><rect x="-40" y="17.9" width="310" height="1.6" fill="#735338" opacity="0.62"/><rect x="-40" y="34.0" width="310" height="1.0" fill="#735338" opacity="0.35"/><rect x="-40" y="48.4" width="310" height="2.2" fill="#735338" opacity="0.40"/><rect x="-40" y="67.3" width="310" height="1.7" fill="#735338" opacity="0.63"/><rect x="-40" y="80.7" width="310" height="0.7" fill="#735338" opacity="0.31"/><rect x="-40" y="97.5" width="310" height="2.7" fill="#735338" opacity="0.27"/><rect x="-40" y="112.0" width="310" height="0.8" fill="#735338" opacity="0.36"/><rect x="-40" y="127.5" width="310" height="1.4" fill="#735338" opacity="0.32"/><rect x="-40" y="146.1" width="310" height="3.2" fill="#735338" opacity="0.50"/><rect x="-40" y="162.3" width="310" height="1.0" fill="#735338" opacity="0.35"/><rect x="-40" y="176.7" width="310" height="2.8" fill="#735338" opacity="0.80"/><rect x="-40" y="192.7" width="310" height="0.8" fill="#735338" opacity="0.78"/><rect x="-40" y="207.7" width="310" height="3.1" fill="#735338" opacity="0.72"/></g>
      <rect width="230" height="222" rx="12" fill="url(#light)" opacity="0.5"/>
      <rect width="230" height="222" rx="12" fill="none" stroke="#6d4b28" stroke-opacity="0.22"/>
    </g><g transform="translate(616 76) rotate(1)">
      <rect width="230" height="222" rx="12" fill="#f2ece4"/>
      <g filter="url(#grainC)" opacity="0.14"><rect x="-40" y="0.0" width="310" height="1.9" fill="#8d8176" opacity="0.47"/><rect x="-40" y="18.7" width="310" height="0.9" fill="#8d8176" opacity="0.35"/><rect x="-40" y="35.3" width="310" height="2.9" fill="#8d8176" opacity="0.79"/><rect x="-40" y="50.6" width="310" height="1.3" fill="#8d8176" opacity="0.76"/><rect x="-40" y="66.6" width="310" height="2.3" fill="#8d8176" opacity="0.27"/><rect x="-40" y="79.5" width="310" height="2.6" fill="#8d8176" opacity="0.34"/><rect x="-40" y="96.3" width="310" height="1.3" fill="#8d8176" opacity="0.80"/><rect x="-40" y="111.2" width="310" height="1.1" fill="#8d8176" opacity="0.65"/><rect x="-40" y="127.2" width="310" height="0.6" fill="#8d8176" opacity="0.69"/><rect x="-40" y="144.4" width="310" height="3.0" fill="#8d8176" opacity="0.45"/><rect x="-40" y="159.8" width="310" height="1.9" fill="#8d8176" opacity="0.83"/><rect x="-40" y="178.0" width="310" height="3.2" fill="#8d8176" opacity="0.40"/><rect x="-40" y="190.4" width="310" height="1.6" fill="#8d8176" opacity="0.74"/><rect x="-40" y="209.9" width="310" height="2.4" fill="#8d8176" opacity="0.65"/></g>
      <rect width="230" height="222" rx="12" fill="url(#light)" opacity="0.5"/>
      <rect width="230" height="222" rx="12" fill="none" stroke="#6d4b28" stroke-opacity="0.22"/>
    </g><g transform="translate(882 76) rotate(-1)">
      <rect width="230" height="222" rx="12" fill="#5f4b3a"/>
      <g filter="url(#grainC)" opacity="0.4"><rect x="-40" y="0.0" width="310" height="1.7" fill="#4b392a" opacity="0.63"/><rect x="-40" y="19.6" width="310" height="2.8" fill="#4b392a" opacity="0.66"/><rect x="-40" y="32.6" width="310" height="2.3" fill="#4b392a" opacity="0.64"/><rect x="-40" y="48.8" width="310" height="3.1" fill="#4b392a" opacity="0.55"/><rect x="-40" y="65.8" width="310" height="2.9" fill="#4b392a" opacity="0.49"/><rect x="-40" y="82.4" width="310" height="1.8" fill="#4b392a" opacity="0.38"/><rect x="-40" y="99.0" width="310" height="2.5" fill="#4b392a" opacity="0.76"/><rect x="-40" y="114.4" width="310" height="1.4" fill="#4b392a" opacity="0.37"/><rect x="-40" y="126.9" width="310" height="2.4" fill="#4b392a" opacity="0.49"/><rect x="-40" y="142.7" width="310" height="2.7" fill="#4b392a" opacity="0.39"/><rect x="-40" y="161.2" width="310" height="2.7" fill="#4b392a" opacity="0.74"/><rect x="-40" y="175.4" width="310" height="1.0" fill="#4b392a" opacity="0.57"/><rect x="-40" y="192.1" width="310" height="2.3" fill="#4b392a" opacity="0.70"/><rect x="-40" y="208.1" width="310" height="1.7" fill="#4b392a" opacity="0.58"/></g>
      <rect width="230" height="222" rx="12" fill="url(#light)" opacity="0.5"/>
      <rect width="230" height="222" rx="12" fill="none" stroke="#6d4b28" stroke-opacity="0.22"/>
    </g><g transform="translate(84 338) rotate(0)">
      <rect width="230" height="222" rx="12" fill="#d7c4a8"/>
      <g filter="url(#grainC)" opacity="0.14"><rect x="-40" y="0.0" width="310" height="1.5" fill="#816f5b" opacity="0.80"/><rect x="-40" y="16.4" width="310" height="2.1" fill="#816f5b" opacity="0.39"/><rect x="-40" y="33.9" width="310" height="1.6" fill="#816f5b" opacity="0.50"/><rect x="-40" y="51.0" width="310" height="2.3" fill="#816f5b" opacity="0.34"/><rect x="-40" y="65.1" width="310" height="1.0" fill="#816f5b" opacity="0.70"/><rect x="-40" y="81.2" width="310" height="1.0" fill="#816f5b" opacity="0.41"/><rect x="-40" y="97.8" width="310" height="1.1" fill="#816f5b" opacity="0.71"/><rect x="-40" y="113.7" width="310" height="1.7" fill="#816f5b" opacity="0.67"/><rect x="-40" y="130.6" width="310" height="1.6" fill="#816f5b" opacity="0.28"/><rect x="-40" y="145.0" width="310" height="2.5" fill="#816f5b" opacity="0.34"/><rect x="-40" y="158.7" width="310" height="1.0" fill="#816f5b" opacity="0.64"/><rect x="-40" y="176.7" width="310" height="1.4" fill="#816f5b" opacity="0.74"/><rect x="-40" y="193.8" width="310" height="3.1" fill="#816f5b" opacity="0.67"/><rect x="-40" y="206.4" width="310" height="1.0" fill="#816f5b" opacity="0.51"/></g>
      <rect width="230" height="222" rx="12" fill="url(#light)" opacity="0.5"/>
      <rect width="230" height="222" rx="12" fill="none" stroke="#6d4b28" stroke-opacity="0.22"/>
    </g><g transform="translate(350 338) rotate(1)">
      <rect width="230" height="222" rx="12" fill="#8f9c8e"/>
      <g filter="url(#grainC)" opacity="0.14"><rect x="-40" y="0.0" width="310" height="1.3" fill="#605d4f" opacity="0.39"/><rect x="-40" y="17.2" width="310" height="1.4" fill="#605d4f" opacity="0.70"/><rect x="-40" y="35.2" width="310" height="1.0" fill="#605d4f" opacity="0.36"/><rect x="-40" y="49.1" width="310" height="1.5" fill="#605d4f" opacity="0.71"/><rect x="-40" y="64.4" width="310" height="1.6" fill="#605d4f" opacity="0.34"/><rect x="-40" y="80.0" width="310" height="2.8" fill="#605d4f" opacity="0.44"/><rect x="-40" y="96.5" width="310" height="2.4" fill="#605d4f" opacity="0.67"/><rect x="-40" y="112.9" width="310" height="2.1" fill="#605d4f" opacity="0.39"/><rect x="-40" y="130.2" width="310" height="0.8" fill="#605d4f" opacity="0.65"/><rect x="-40" y="143.3" width="310" height="2.3" fill="#605d4f" opacity="0.29"/><rect x="-40" y="160.2" width="310" height="1.9" fill="#605d4f" opacity="0.55"/><rect x="-40" y="178.0" width="310" height="1.8" fill="#605d4f" opacity="0.34"/><rect x="-40" y="191.5" width="310" height="1.3" fill="#605d4f" opacity="0.63"/><rect x="-40" y="208.6" width="310" height="2.9" fill="#605d4f" opacity="0.44"/></g>
      <rect width="230" height="222" rx="12" fill="url(#light)" opacity="0.5"/>
      <rect width="230" height="222" rx="12" fill="none" stroke="#6d4b28" stroke-opacity="0.22"/>
    </g><g transform="translate(616 338) rotate(-1)">
      <rect width="230" height="222" rx="12" fill="#c96f4a"/>
      <g filter="url(#grainC)" opacity="0.4"><rect x="-40" y="0.0" width="310" height="1.1" fill="#7a4931" opacity="0.56"/><rect x="-40" y="18.1" width="310" height="0.7" fill="#7a4931" opacity="0.43"/><rect x="-40" y="32.6" width="310" height="3.0" fill="#7a4931" opacity="0.80"/><rect x="-40" y="51.3" width="310" height="0.7" fill="#7a4931" opacity="0.50"/><rect x="-40" y="63.7" width="310" height="2.2" fill="#7a4931" opacity="0.56"/><rect x="-40" y="82.9" width="310" height="2.0" fill="#7a4931" opacity="0.47"/><rect x="-40" y="95.2" width="310" height="1.0" fill="#7a4931" opacity="0.62"/><rect x="-40" y="112.1" width="310" height="2.4" fill="#7a4931" opacity="0.68"/><rect x="-40" y="129.9" width="310" height="2.6" fill="#7a4931" opacity="0.45"/><rect x="-40" y="145.7" width="310" height="2.0" fill="#7a4931" opacity="0.81"/><rect x="-40" y="161.7" width="310" height="2.7" fill="#7a4931" opacity="0.45"/><rect x="-40" y="175.4" width="310" height="2.1" fill="#7a4931" opacity="0.51"/><rect x="-40" y="193.2" width="310" height="2.0" fill="#7a4931" opacity="0.60"/><rect x="-40" y="206.8" width="310" height="2.2" fill="#7a4931" opacity="0.36"/></g>
      <rect width="230" height="222" rx="12" fill="url(#light)" opacity="0.5"/>
      <rect width="230" height="222" rx="12" fill="none" stroke="#6d4b28" stroke-opacity="0.22"/>
    </g><g transform="translate(882 338) rotate(0)">
      <rect width="230" height="222" rx="12" fill="#e7e2d8"/>
      <g filter="url(#grainC)" opacity="0.14"><rect x="-40" y="0.0" width="310" height="0.9" fill="#887d71" opacity="0.73"/><rect x="-40" y="18.9" width="310" height="2.6" fill="#887d71" opacity="0.74"/><rect x="-40" y="33.9" width="310" height="2.3" fill="#887d71" opacity="0.66"/><rect x="-40" y="49.5" width="310" height="2.4" fill="#887d71" opacity="0.29"/><rect x="-40" y="66.9" width="310" height="2.9" fill="#887d71" opacity="0.77"/><rect x="-40" y="81.7" width="310" height="1.2" fill="#887d71" opacity="0.50"/><rect x="-40" y="98.0" width="310" height="2.2" fill="#887d71" opacity="0.58"/><rect x="-40" y="111.3" width="310" height="2.7" fill="#887d71" opacity="0.40"/><rect x="-40" y="129.6" width="310" height="1.8" fill="#887d71" opacity="0.82"/><rect x="-40" y="144.0" width="310" height="1.8" fill="#887d71" opacity="0.76"/><rect x="-40" y="159.2" width="310" height="1.0" fill="#887d71" opacity="0.36"/><rect x="-40" y="176.7" width="310" height="2.5" fill="#887d71" opacity="0.68"/><rect x="-40" y="190.9" width="310" height="2.8" fill="#887d71" opacity="0.56"/><rect x="-40" y="209.1" width="310" height="1.5" fill="#887d71" opacity="0.29"/></g>
      <rect width="230" height="222" rx="12" fill="url(#light)" opacity="0.5"/>
      <rect width="230" height="222" rx="12" fill="none" stroke="#6d4b28" stroke-opacity="0.22"/>
    </g><g transform="translate(84 600) rotate(1)">
      <rect width="230" height="222" rx="12" fill="#9c7b57"/>
      <g filter="url(#grainC)" opacity="0.14"><rect x="-40" y="0.0" width="310" height="0.7" fill="#664e37" opacity="0.31"/><rect x="-40" y="19.8" width="310" height="1.9" fill="#664e37" opacity="0.47"/><rect x="-40" y="35.2" width="310" height="1.7" fill="#664e37" opacity="0.51"/><rect x="-40" y="47.6" width="310" height="1.6" fill="#664e37" opacity="0.66"/><rect x="-40" y="66.2" width="310" height="0.9" fill="#664e37" opacity="0.41"/><rect x="-40" y="80.5" width="310" height="3.0" fill="#664e37" opacity="0.53"/><rect x="-40" y="96.7" width="310" height="0.8" fill="#664e37" opacity="0.53"/><rect x="-40" y="114.6" width="310" height="3.0" fill="#664e37" opacity="0.70"/><rect x="-40" y="129.3" width="310" height="1.0" fill="#664e37" opacity="0.61"/><rect x="-40" y="146.3" width="310" height="1.6" fill="#664e37" opacity="0.71"/><rect x="-40" y="160.7" width="310" height="1.9" fill="#664e37" opacity="0.27"/><rect x="-40" y="178.0" width="310" height="2.9" fill="#664e37" opacity="0.27"/><rect x="-40" y="192.6" width="310" height="1.0" fill="#664e37" opacity="0.52"/><rect x="-40" y="207.3" width="310" height="0.8" fill="#664e37" opacity="0.80"/></g>
      <rect width="230" height="222" rx="12" fill="url(#light)" opacity="0.5"/>
      <rect width="230" height="222" rx="12" fill="none" stroke="#6d4b28" stroke-opacity="0.22"/>
    </g><g transform="translate(350 600) rotate(-1)">
      <rect width="230" height="222" rx="12" fill="#cfd3cb"/>
      <g filter="url(#grainC)" opacity="0.4"><rect x="-40" y="0.0" width="310" height="3.1" fill="#7d766b" opacity="0.48"/><rect x="-40" y="16.6" width="310" height="1.2" fill="#7d766b" opacity="0.78"/><rect x="-40" y="32.5" width="310" height="1.0" fill="#7d766b" opacity="0.37"/><rect x="-40" y="49.8" width="310" height="0.8" fill="#7d766b" opacity="0.45"/><rect x="-40" y="65.5" width="310" height="1.5" fill="#7d766b" opacity="0.63"/><rect x="-40" y="79.4" width="310" height="2.3" fill="#7d766b" opacity="0.56"/><rect x="-40" y="95.4" width="310" height="2.0" fill="#7d766b" opacity="0.49"/><rect x="-40" y="113.8" width="310" height="0.7" fill="#7d766b" opacity="0.42"/><rect x="-40" y="129.0" width="310" height="2.8" fill="#7d766b" opacity="0.41"/><rect x="-40" y="144.6" width="310" height="1.3" fill="#7d766b" opacity="0.65"/><rect x="-40" y="162.2" width="310" height="2.8" fill="#7d766b" opacity="0.75"/><rect x="-40" y="175.3" width="310" height="0.7" fill="#7d766b" opacity="0.45"/><rect x="-40" y="190.4" width="310" height="1.7" fill="#7d766b" opacity="0.49"/><rect x="-40" y="209.5" width="310" height="2.7" fill="#7d766b" opacity="0.73"/></g>
      <rect width="230" height="222" rx="12" fill="url(#light)" opacity="0.5"/>
      <rect width="230" height="222" rx="12" fill="none" stroke="#6d4b28" stroke-opacity="0.22"/>
    </g><g transform="translate(616 600) rotate(0)">
      <rect width="230" height="222" rx="12" fill="#7d5f45"/>
      <g filter="url(#grainC)" opacity="0.14"><rect x="-40" y="0.0" width="310" height="2.8" fill="#58422e" opacity="0.65"/><rect x="-40" y="17.5" width="310" height="3.1" fill="#58422e" opacity="0.50"/><rect x="-40" y="33.8" width="310" height="3.0" fill="#58422e" opacity="0.81"/><rect x="-40" y="48.0" width="310" height="2.6" fill="#58422e" opacity="0.81"/><rect x="-40" y="64.7" width="310" height="2.1" fill="#58422e" opacity="0.27"/><rect x="-40" y="82.2" width="310" height="1.5" fill="#58422e" opacity="0.59"/><rect x="-40" y="98.2" width="310" height="0.6" fill="#58422e" opacity="0.44"/><rect x="-40" y="113.0" width="310" height="1.1" fill="#58422e" opacity="0.71"/><rect x="-40" y="128.7" width="310" height="2.0" fill="#58422e" opacity="0.78"/><rect x="-40" y="142.9" width="310" height="1.1" fill="#58422e" opacity="0.60"/><rect x="-40" y="159.7" width="310" height="1.0" fill="#58422e" opacity="0.66"/><rect x="-40" y="176.7" width="310" height="1.1" fill="#58422e" opacity="0.62"/><rect x="-40" y="192.1" width="310" height="2.5" fill="#58422e" opacity="0.45"/><rect x="-40" y="207.7" width="310" height="2.0" fill="#58422e" opacity="0.66"/></g>
      <rect width="230" height="222" rx="12" fill="url(#light)" opacity="0.5"/>
      <rect width="230" height="222" rx="12" fill="none" stroke="#6d4b28" stroke-opacity="0.22"/>
    </g><g transform="translate(882 600) rotate(1)">
      <rect width="230" height="222" rx="12" fill="#ead9bd"/>
      <g filter="url(#grainC)" opacity="0.14"><rect x="-40" y="0.0" width="310" height="2.6" fill="#897964" opacity="0.82"/><rect x="-40" y="18.3" width="310" height="2.4" fill="#897964" opacity="0.81"/><rect x="-40" y="35.1" width="310" height="2.3" fill="#897964" opacity="0.67"/><rect x="-40" y="50.2" width="310" height="1.8" fill="#897964" opacity="0.60"/><rect x="-40" y="64.0" width="310" height="2.8" fill="#897964" opacity="0.48"/><rect x="-40" y="81.0" width="310" height="0.7" fill="#897964" opacity="0.63"/><rect x="-40" y="96.9" width="310" height="1.9" fill="#897964" opacity="0.40"/><rect x="-40" y="112.3" width="310" height="1.4" fill="#897964" opacity="0.43"/><rect x="-40" y="128.4" width="310" height="1.1" fill="#897964" opacity="0.57"/><rect x="-40" y="145.2" width="310" height="0.9" fill="#897964" opacity="0.55"/><rect x="-40" y="161.2" width="310" height="1.9" fill="#897964" opacity="0.56"/><rect x="-40" y="178.0" width="310" height="1.5" fill="#897964" opacity="0.79"/><rect x="-40" y="193.8" width="310" height="0.7" fill="#897964" opacity="0.41"/><rect x="-40" y="210.0" width="310" height="1.3" fill="#897964" opacity="0.59"/></g>
      <rect width="230" height="222" rx="12" fill="url(#light)" opacity="0.5"/>
      <rect width="230" height="222" rx="12" fill="none" stroke="#6d4b28" stroke-opacity="0.22"/>
    </g>
<rect width="1200" height="900" fill="url(#vignette)"/>
</svg>
